<svg xmlns="http://www.w3.org/2000/svg" viewBox="0 0 612.027 612.027">
<g><g>
		<path d="M98.896,414.221c-54.526,0-98.883,44.371-98.883,98.902c0,54.529,44.356,98.904,98.883,98.904
			c54.544,0,98.92-44.369,98.92-98.904C197.816,458.586,153.436,414.221,98.896,414.221z M98.896,593.352
			c-44.226,0-80.207-35.99-80.207-80.229c0-44.24,35.98-80.23,80.207-80.23c44.249,0,80.243,35.99,80.243,80.23
			C179.14,557.361,143.141,593.352,98.896,593.352z"/>
		<path d="M65.307,196.537c-32.927,0-59.713,26.778-59.713,59.7c0,32.926,26.787,59.712,59.708,59.712
			c61.59,0.033,119.553,24.043,163.195,67.596c43.558,43.646,67.557,101.596,67.585,163.172c0,32.926,26.792,59.713,59.727,59.713
			c32.927,0,59.714-26.787,59.714-59.713c0-93.639-36.434-181.582-102.576-247.618C246.898,232.961,158.997,196.537,65.307,196.537z
			 M355.81,587.754c-22.636,0-41.051-18.406-41.051-41.043c-0.028-66.557-25.97-129.189-73.053-176.375
			c-47.182-47.074-109.827-73.025-176.399-73.058c-22.631,0-41.037-18.406-41.037-41.037c0-22.622,18.406-41.023,41.168-41.023
			c88.563,0,171.768,34.477,234.306,97.09c62.617,62.523,97.104,145.773,97.104,234.412
			C396.847,569.344,378.441,587.754,355.81,587.754z"/>
		<path d="M451.914,160.146C348.745,56.875,211.478,0,65.307,0C32.385,0,5.593,26.787,5.593,59.713
			c0,32.936,26.787,59.728,59.713,59.728c114.081,0.019,221.381,44.455,302.139,125.123
			c80.696,80.793,125.137,188.1,125.137,302.153c0,32.926,26.792,59.713,59.728,59.713c32.922,0,59.704-26.787,59.704-59.709
			C612.061,400.633,555.2,263.338,451.914,160.146z M552.31,587.754c-22.636,0-41.051-18.406-41.051-41.037
			c0-119.035-46.383-231.027-130.609-315.357c-84.287-84.193-196.28-130.576-315.343-130.595c-22.631,0-41.037-18.415-41.037-41.051
			c0-22.631,18.411-41.037,41.121-41.037c141.096,0,273.671,54.932,373.314,154.674c99.761,99.676,154.679,232.271,154.632,373.366
			C593.337,569.344,574.937,587.754,552.31,587.754z"/>
	</g></g>
</svg>
